:SAMPLES-PER-SECOND 30
:FULLY-SPECIFIED
:DEGREES
205
root  10.14255539 37.87066542 -3.634666833 9.889399529 27.17180061 -9.087770462
lowerback  14.18529987 5.884419918 -1.357949972
upperback  4.179759979 7.406990051 -4.699540138
thorax  -3.005110025 3.713409901 -5.385849953
lowerneck  -2.452899933 -6.708069801 -9.49341011
upperneck  -4.39951992 -8.357959747 25.31419945
head  0.7847290039 -4.17993021 9.247520447
lclavicle  0 -9.442270133e-015 7.951389973e-016
lhumerus  6.294300079 -27.12820053 70.00640106
lradius  2.613512523e-031 -2.37453076e-031 137.7429962
lwrist  -7.062250077e-031 -0 9.336000443
lhand  -1.496451383e-031 -27.76390076 20.11240005
lfingers  90 7.125020027 -90
lthumb  89.89689403 5.08795885 91.16245106
rclavicle  0 -9.442270133e-015 7.951389973e-016
rhumerus  35.04669952 -12.77490044 -25.20499992
rradius  2.201281755e-031 2.76101479e-031 51.43560028
rwrist  1.059337512e-030 -7.062250077e-031 11.47710037
rhand  -7.920061211e-032 -33.2840004 9.303460121
rfingers  -90 -7.125020027 -90
rthumb  -92.93752616 -24.25625642 -97.11982154
rfemur  -1.53647995 4.622719765 28.2935009
rtibia  -0 0 37.05799866
rfoot  -0 -27.54710007 -24.57410049
rtoes  5.373923086 19.29304026 -105.8922705
lfemur  -61.57509995 -11.23950005 0.1731559932
ltibia  -0 0 45.06209946
lfoot  -0 4.142690182 -8.603190422
ltoes  -4.250644065 -19.5611806 -102.515957
206
root  10.08186641 37.78022105 -3.552822053 9.273070335 25.49860001 -9.516670227
lowerback  14.06869984 6.184899807 -2.084130049
upperback  4.277400017 7.704810143 -4.719049931
thorax  -2.907540083 3.858799934 -5.033410072
lowerneck  -1.945899963 -6.428420067 -9.382780075
upperneck  -4.347229958 -7.997300148 25.29570007
head  0.6362569928 -4.03441 9.261719704
lclavicle  0 -9.442270133e-015 7.951389973e-016
lhumerus  6.108829975 -26.65469933 70.58769989
lradius  2.59139456e-031 -2.39864926e-031 137.2120056
lwrist  -7.062250077e-031 -1.765562519e-031 10.17490005
lhand  -1.496451383e-031 -27.76390076 20.11240005
lfingers  90 7.125020027 -90
lthumb  89.89689403 5.08795885 91.16245106
rclavicle  0 -9.442270133e-015 7.951389973e-016
rhumerus  34.68379974 -11.91539955 -28.06049919
rradius  2.027838083e-031 2.890798635e-031 54.9510994
rwrist  1.059337512e-030 -7.062250077e-031 9.619310379
rhand  -7.920061211e-032 -33.2840004 9.303460121
rfingers  -90 -7.125020027 -90
rthumb  -92.93752616 -24.25625642 -97.11982154
rfemur  -2.143769979 5.796679974 27.08650017
rtibia  -0 0 38.34460068
rfoot  -0 -27.68440056 -22.72430038
rtoes  5.373923086 19.29304026 -105.8922705
lfemur  -61.31760025 -9.705129623 -0.0349676013
ltibia  -0 0 47.02130127
lfoot  -0 3.278310061 -7.80411005
ltoes  -4.250644065 -19.5611806 -102.515957
207
root  10.05751092 37.67933282 -3.506933423 8.631699562 23.95709991 -10.30070019
lowerback  13.74260044 6.38752985 -2.311640024
upperback  4.337069988 7.961110115 -4.567180157
thorax  -2.705840111 3.983809948 -4.743070126
lowerneck  -1.448930025 -6.206920147 -9.374739647
upperneck  -4.05907011 -7.764870167 25.18059921
head  0.5777599812 -3.938250065 9.247610092
lclavicle  0 -9.442270133e-015 7.951389973e-016
lhumerus  6.047540188 -26.38479996 71.373703
lradius  2.568672705e-031 -2.422966069e-031 136.6719971
lwrist  -7.062250077e-031 1.765562519e-031 10.79230022
lhand  -1.496451383e-031 -27.76390076 20.11240005
lfingers  90 7.125020027 -90
lthumb  89.89689403 5.08795885 91.16245106
rclavicle  0 -9.442270133e-015 7.951389973e-016
rhumerus  34.2159996 -10.91860008 -30.65539932
rradius  1.857555965e-031 3.003053425e-031 58.26089859
rwrist  3.531125038e-031 -7.062250077e-031 9.428990364
rhand  -7.920061211e-032 -33.2840004 9.303460121
rfingers  -90 -7.125020027 -90
rthumb  -92.93752616 -24.25625642 -97.11982154
rfemur  -2.906290054 6.576000214 26.15679932
rtibia  -0 0 39.51890182
rfoot  -0 -27.35180092 -20.83819962
rtoes  5.373923086 19.29304026 -105.8922705
lfemur  -61.28089905 -8.200739861 0.08742179722
ltibia  -0 0 49.01750183
lfoot  8.836455746e-032 2.534369946 -6.97645998
ltoes  -4.250644065 -19.5611806 -102.515957
208
root  10.04573341 37.60155505 -3.450622333 7.928229809 22.37820053 -10.96520042
lowerback  13.35830021 6.639929771 -2.639300108
upperback  4.401309967 8.27560997 -4.404150009
thorax  -2.483799934 4.13657999 -4.38740015
lowerneck  -1.06754005 -6.006299973 -9.460550308
upperneck  -3.367609978 -7.630740166 25.21150017
head  0.6818050146 -3.860409975 9.284359932
lclavicle  0 -9.442270133e-015 7.951389973e-016
lhumerus  6.058100224 -26.64940071 72.16190338
lradius  2.534163393e-031 -2.459036384e-031 135.8619995
lwrist  -1.412450015e-030 -1.765562519e-031 10.5237999
lhand  -1.496451383e-031 -27.76390076 20.11240005
lfingers  90 7.125020027 -90
lthumb  89.89689403 5.08795885 91.16245106
rclavicle  0 -9.442270133e-015 7.951389973e-016
rhumerus  33.36970139 -9.761039734 -33.01610184
rradius  1.687722837e-031 3.101682714e-031 61.44800186
rwrist  3.531125038e-031 -3.531125038e-031 9.75909996
rhand  -7.920061211e-032 -33.2840004 9.303460121
rfingers  -90 -7.125020027 -90
rthumb  -92.93752616 -24.25625642 -97.11982154
rfemur  -3.455650091 7.167240143 25.17169952
rtibia  -0 0 40.57400131
rfoot  -0 -26.79100037 -18.7696991
rtoes  5.373923086 19.29304026 -105.8922705
lfemur  -61.04769897 -6.868999958 0.1824110001
ltibia  -0 0 50.96279907
lfoot  4.416658494e-032 2.022799969 -5.897220135
ltoes  -4.250644065 -19.5611806 -102.515957
209
root  10.04353321 37.53733297 -3.376177915 7.060269833 20.83119965 -11.53170013
lowerback  12.98029995 6.876009941 -3.043220043
upperback  4.517610073 8.564949989 -4.237110138
thorax  -2.227920055 4.275939941 -3.979170084
lowerneck  -0.9253119826 -5.800670147 -9.625200272
upperneck  -2.201819897 -7.569590092 25.43510056
head  0.9864339828 -3.776180029 9.385680199
lclavicle  0 -9.442270133e-015 7.951389973e-016
lhumerus  6.232250214 -26.86829948 72.88819885
lradius  2.526684111e-031 -2.466720787e-031 135.6880035
lwrist  -7.062250077e-031 -1.765562519e-031 11.91209984
lhand  -1.496451383e-031 -27.76390076 20.11240005
lfingers  90 7.125020027 -90
lthumb  89.89689403 5.08795885 91.16245106
rclavicle  0 -9.442270133e-015 7.951389973e-016
rhumerus  32.28559875 -8.523719788 -35.29990005
rradius  1.52528735e-031 3.184704466e-031 64.40830231
rwrist  1.412450015e-030 -3.531125038e-031 9.675629616
rhand  -7.920061211e-032 -33.2840004 9.303460121
rfingers  -90 -7.125020027 -90
rthumb  -92.93752616 -24.25625642 -97.11982154
rfemur  -3.646290064 7.501760006 24.19269943
rtibia  -0 0 41.50790024
rfoot  -0 -26.16279984 -16.34889984
rtoes  5.373923086 19.29304026 -105.8922705
lfemur  -60.53749847 -5.842879772 0.3574450016
ltibia  -0 0 52.79909897
lfoot  8.831403709e-032 1.633999944 -4.470910072
ltoes  -4.250644065 -19.5611806 -102.515957
210
root  10.04682226 37.46822087 -3.304444336 5.993770123 19.42230034 -12.11030006
lowerback  12.80340004 7.011630058 -3.220669985
upperback  4.688189983 8.742090225 -4.146289825
thorax  -1.986359954 4.36191988 -3.777260065
lowerneck  -1.071930051 -5.620619774 -9.484479904
upperneck  -0.7748889923 -7.585609913 25.58180046
head  1.41237998 -3.695270061 9.393730164
lclavicle  0 -9.442270133e-015 7.951389973e-016
lhumerus  6.703209877 -27.3845005 73.28769684
lradius  2.511135448e-031 -2.482547643e-031 135.3280029
lwrist  -7.062250077e-031 1.765562519e-031 12.07590008
lhand  -1.496451383e-031 -27.76390076 20.11240005
lfingers  90 7.125020027 -90
lthumb  89.89689403 5.08795885 91.16245106
rclavicle  0 -9.442270133e-015 7.951389973e-016
rhumerus  31.06800079 -7.40734005 -37.71369934
rradius  1.374880024e-031 3.252468133e-031 67.08529663
rwrist  7.062250077e-031 -3.531125038e-031 9.311690331
rhand  -7.920061211e-032 -33.2840004 9.303460121
rfingers  -90 -7.125020027 -90
rthumb  -92.93752616 -24.25625642 -97.11982154
rfemur  -3.568429947 7.496630192 23.31959915
rtibia  -0 0 42.36320114
rfoot  -0 -25.35630035 -13.68229961
rtoes  5.373923086 19.29304026 -105.8922705
lfemur  -59.77669907 -5.242529869 0.7646179795
ltibia  -0 0 54.4192009
lfoot  4.414401235e-032 0.8579869866 -3.291320086
ltoes  -4.250644065 -19.5611806 -102.515957
